<svg width="30" height="25" viewBox="0 0 30 25" fill="none" xmlns="http://www.w3.org/2000/svg">
<path d="M30 2.95662C28.8986 3.46141 27.7092 3.79793 26.4672 3.94793C27.7382 3.16622 28.7112 1.92877 29.1733 0.456713C27.9838 1.17784 26.6659 1.70666 25.2656 1.98935C24.1408 0.763432 22.5417 0 20.772 0C17.3742 0 14.6204 2.82489 14.6204 6.31033C14.6204 6.80262 14.6729 7.28337 14.7788 7.74682C9.66475 7.4824 5.12998 4.97 2.09586 1.14899C1.56814 2.08069 1.26445 3.16815 1.26445 4.32195C1.26445 6.50937 2.348 8.44391 4.0005 9.57463C2.99288 9.54483 2.0443 9.25637 1.21196 8.78716C1.21196 8.8112 1.21196 8.84101 1.21196 8.86504C1.21196 11.9236 3.33313 14.4783 6.15072 15.0542C5.63519 15.1985 5.09061 15.2763 4.52821 15.2763C4.12985 15.2763 3.7493 15.234 3.36874 15.1619C4.15422 17.6676 6.42723 19.4944 9.11548 19.5492C7.0065 21.2434 4.35856 22.254 1.47066 22.254C0.972943 22.254 0.486471 22.2241 0 22.1636C2.73043 23.9606 5.96326 25 9.43792 25C20.7561 25 26.9481 15.3792 26.9481 7.03819C26.9481 6.76224 26.9424 6.4911 26.9303 6.22091C28.131 5.3373 29.1742 4.2258 30 2.95758V2.95662Z" fill="white"/>
</svg>
