<svg width="25" height="25" viewBox="0 0 25 25" fill="none" xmlns="http://www.w3.org/2000/svg">
<path d="M21.3548 3.63281C19.0042 1.28906 15.8787 0 12.5467 0C5.68649 0 0.102848 5.55625 0.102848 12.3875C0.102848 14.5703 0.676758 16.7039 1.76648 18.5789L0 25L6.59957 23.2766C8.42022 24.2625 10.4662 24.7852 12.5467 24.7852H12.5514C19.4116 24.7852 25 19.2281 25 12.3977C25 9.08672 23.7054 5.97656 21.3548 3.63281ZM12.5522 22.6953C10.6923 22.6953 8.87165 22.1977 7.28182 21.2602L6.90419 21.0352L2.98888 22.0555L4.03385 18.2563L3.78812 17.8656C2.74786 16.2297 2.203 14.3352 2.203 12.3875C2.203 6.70859 6.84452 2.08984 12.5569 2.08984C15.3197 2.08984 17.92 3.16406 19.8733 5.10703C21.8266 7.05547 22.9006 9.63828 22.9006 12.3922C22.8959 18.0758 18.2536 22.6953 12.5522 22.6953ZM18.2246 14.9805C17.9152 14.8242 16.3843 14.0773 16.1001 13.9742C15.8159 13.8711 15.6094 13.818 15.3982 14.1305C15.1925 14.4383 14.5935 15.1367 14.4121 15.3461C14.2308 15.5508 14.0494 15.5805 13.7401 15.4242C13.4307 15.268 12.425 14.9406 11.2372 13.8859C10.3147 13.0656 9.68659 12.05 9.50523 11.7422C9.32387 11.4344 9.4856 11.2633 9.64262 11.1125C9.78472 10.9758 9.95195 10.7508 10.109 10.5703C10.266 10.3898 10.3147 10.2625 10.4183 10.0531C10.5211 9.84844 10.4725 9.66719 10.394 9.51094C10.3155 9.35469 9.69208 7.83125 9.43692 7.21094C9.18648 6.60547 8.92661 6.68828 8.73504 6.67891C8.55368 6.66953 8.3472 6.66953 8.14151 6.66953C7.93581 6.66953 7.59665 6.74766 7.31244 7.05547C7.02745 7.36328 6.2235 8.11484 6.2235 9.63828C6.2235 11.1617 7.33756 12.6313 7.49458 12.8414C7.6516 13.0461 9.68816 16.1766 12.8089 17.5141C13.5501 17.8312 14.1287 18.0219 14.5801 18.168C15.326 18.4023 16.0035 18.368 16.5382 18.2898C17.1364 18.2016 18.3785 17.543 18.6383 16.8203C18.8982 16.0977 18.8982 15.4773 18.8197 15.3508C18.7459 15.2141 18.5402 15.1359 18.2261 14.9797L18.2246 14.9805Z" fill="white"/>
</svg>
